<svg width="26" height="26" viewBox="0 0 100 100" version="1.1" xmlns="http://www.w3.org/2000/svg" xmlns:xlink="http://www.w3.org/1999/xlink" xml:space="preserve" xmlns:serif="http://www.serif.com/" style="fill-rule:evenodd;clip-rule:evenodd;stroke-linejoin:round;stroke-miterlimit:2;">
  <path fill="#FAFAFA" d="M5.222,83.097c-0,-5.34 4.394,-9.734 9.734,-9.734c-0,-0 0,-0 0,-0c5.34,-0 9.734,4.394 9.735,9.734l-0,3.894c-0.001,5.34 -4.395,9.734 -9.735,9.734c0,0 -0,0 -0,0c-5.34,0 -9.734,-4.394 -9.734,-9.734l-0,-3.894Zm23.362,-9.734l19.469,-0l0,13.628c0,5.34 -4.394,9.734 -9.734,9.734c-0,0 -0,0 -0.001,0c-5.34,0 -9.734,-4.394 -9.734,-9.734l0,-13.628Zm0,-13.629c0,-5.34 4.394,-9.734 9.734,-9.734c0.001,-0 0.001,-0 0.001,-0c5.34,-0 9.734,4.394 9.734,9.734l0,13.629l-19.469,-0l0,-13.629Zm23.363,-46.725c-0,-5.34 4.394,-9.734 9.734,-9.734c0,-0 0,-0 0,-0c5.34,-0 9.735,4.394 9.735,9.734l-0,13.628l-19.469,0l-0,-13.628Zm-0,13.628l19.469,0l-0,23.363l-19.469,-0l-0,-23.363Zm-0,23.363l19.469,-0l-0,23.363l-19.469,-0l-0,-23.363Zm-0,23.363l19.469,-0l-0,13.628c-0,5.34 -4.395,9.734 -9.735,9.734c0,0 0,0 0,0c-5.34,0 -9.734,-4.394 -9.734,-9.734l-0,-13.628Zm23.362,-13.629c0.001,-5.34 4.395,-9.734 9.735,-9.734c-0,-0 -0,-0 -0,-0c5.34,-0 9.734,4.394 9.734,9.734l0,3.894c0,5.34 -4.394,9.735 -9.734,9.735c-0,-0 -0,-0 -0,-0c-5.34,-0 -9.734,-4.395 -9.735,-9.735l0,-3.894Zm0,-46.725c0.001,-5.34 4.395,-9.734 9.735,-9.734c-0,-0 -0,-0 -0,-0c5.34,-0 9.734,4.394 9.734,9.734l0,3.894c0,5.34 -4.394,9.734 -9.734,9.734c-0,0 -0,0 -0,0c-5.34,0 -9.734,-4.394 -9.735,-9.734l0,-3.894Z" style="fill-rule:nonzero;" />
</svg>