<svg xmlns="http://www.w3.org/2000/svg" version="1.1" xmlns:xlink="http://www.w3.org/1999/xlink" xmlns:svgjs="http://svgjs.com/svgjs" width="30" height="30" transform="matrix(1,0,0,1,0,0)">
  <text font-family="Avenir" font-size="32" text-anchor="left" x="310" charspacing="20px">
    CloudAtlas
  </text>
  <path transform="matrix(1,0,0,1,50,50)" d="M0,170.833A20.833333333333332,20.833333333333332,90,0,1,20.833,150L20.833,150A20.833333333333332,20.833333333333332,90,0,1,41.667,170.833L41.667,179.167A20.83333333333334,20.83333333333334,-270,0,1,20.833,200L20.833,200A20.833333333333332,20.833333333333332,90,0,1,0,179.167ZM50,150L91.66666666666667,150L91.667,179.167A20.83333333333334,20.83333333333334,-270,0,1,70.833,200L70.833,200A20.833333333333332,20.833333333333332,90,0,1,50,179.167ZM50,120.833A20.833333333333332,20.833333333333332,90,0,1,70.833,100L70.833,100A20.833333333333332,20.833333333333332,90,0,1,91.667,120.833L91.66666666666667,150L50,150ZM100,20.833A20.83333333333334,20.83333333333334,90,0,1,120.833,0L120.833,0A20.83333333333334,20.83333333333334,90,0,1,141.667,20.833L141.66666666666669,50L100,50ZM100,50L141.66666666666669,50L141.66666666666669,100L100,100ZM100,100L141.66666666666669,100L141.66666666666669,150L100,150ZM100,150L141.66666666666669,150L141.667,179.167A20.833333333333346,20.833333333333346,-270,0,1,120.833,200L120.833,200A20.83333333333334,20.83333333333334,90,0,1,100,179.167ZM150,120.833A20.83333333333334,20.83333333333334,90,0,1,170.833,100L170.833,100A20.83333333333334,20.83333333333334,90,0,1,191.667,120.833L191.667,129.167A20.833333333333346,20.833333333333346,-270,0,1,170.833,150L170.833,150A20.83333333333334,20.83333333333334,90,0,1,150,129.167ZM150,20.833A20.83333333333334,20.83333333333334,90,0,1,170.833,0L170.833,0A20.83333333333334,20.83333333333334,90,0,1,191.667,20.833L191.667,29.167A20.833333333333346,20.833333333333346,-270,0,1,170.833,50L170.833,50A20.83333333333334,20.83333333333334,90,0,1,150,29.167Z"/>
</svg>